/* XPM */
static char *_8314_832f32e2ef988cbf59e0603661becba193f69e17261174a7953836cd83dca310[] = {
/* columns rows colors chars-per-pixel */
"30 30 5 1 ",
"  c #F7F7F5",
". c #F6F6F6",
"X c gray97",
"o c #F8F8F8",
"O c None",
/* pixels */
"OOOOOOOOOOOoXXXXXXXOOOOOOOOOOO",
"OOOOOOOOOXXXXXXXXXXXXOOOOOOOOO",
"OOOOOOOXXXXXXXXXXXXXXXXOOOOOOO",
"OOOOO.XXXXXXXXXXXXXXXXXXXOOOOO",
"OOOOXXXXXXXXXXXXXXXXXXXXXXOOOO",
"OOO.XXXXXXXXXXXXXXXXXXXXXXXOOO",
"OOOXXXXXXXXXXXXXXXXXXXXXXXXOOO",
"OOXXXXXXXXXXXXXXXXXXXXXXXXXXOO",
"OOXXXXXXXXXXXXXXXXXXXXXXXXXXoO",
"OXXXXXXXXXXXXXXXXXXXXXXXXXXXXO",
"OXXXXXXXXXXXXXXXXXXXXXXXXXXXXO",
"XXXXXXXXXXXXXXXXXXXXXXXXXXXXXX",
"XXXXXXXXXXXXXXXXXXXXXXXXXXXXXX",
"XXXXXXXXXXXXXXXXXXXXXXXXXXXXXX",
"XXXXXXXXXXXXXXXXXXXXXXXXXXXXXX",
"XXXXXXXXXXXXXXXXXXXXXXXXXXXXXX",
"XXXXXXXXXXXXXXXXXXXXXXXXXXXXXX",
"XXXXXXXXXXXXXXXXXXXXXXXXXXXXXX",
"XXXXXXXXXXXXXXXXXXXXXXXXXXXXXX",
"OXXXXXXXXXXXXXXXXXXXXXXXXXXXXO",
"OXXXXXXXXXXXXXXXXXXXXXXXXXXXXO",
"OXXXXXXXXXXXXXXXXXXXXXXXXXXXoO",
"OOXXXXXXXXXXXXXXXXXXXXXXXXXXOO",
"OOOXXXXXXXXXXXXXXXXXXXXXXXXOOO",
"OOOXXXXXXXXXXXXXXXXXXXXXXXXOOO",
"OOOOXXXXXXXXXXXXXXXXXXXXXXOOOO",
"OOOOOXXXXXXXXXXXXXXXXXXXXOOOOO",
"OOOOOOO XXXXXXXXXXXXXXXOOOOOOO",
"OOOOOOOOXXXXXXXXXXXXXoOOOOOOOO",
"OOOOOOOOOOOXXXXXXXXOOOOOOOOOOO"
};
