/* XPM */
static char *_335_085e5b9f6779b70b8e0b6257a8f0a72607923f82a36b464971568d9769910870[] = {
/* columns rows colors chars-per-pixel */
"50 50 59 1 ",
"  c #1D1CFF",
". c #1D1DFF",
"X c #1E1EFF",
"o c #1D2DFD",
"O c #1E2EFD",
"+ c #1F2FFD",
"@ c #1D35FD",
"# c #1C3BFB",
"$ c #2020FF",
"% c #2121FF",
"& c #262EFE",
"* c #2D2DFF",
"= c #2E2EFF",
"- c #1458F7",
"; c #1363F6",
": c #00FFDF",
"> c #01FFDF",
", c #00F4E1",
"< c #05F4E2",
"1 c #00F9E0",
"2 c #05FFE0",
"3 c #06FFE0",
"4 c #0AFFE1",
"5 c #1EFFE3",
"6 c #3EFFE7",
"7 c #3FFFE7",
"8 c #42FFE7",
"9 c #47FFE8",
"0 c #5DFFEC",
"q c #60FFEC",
"w c #6AFFED",
"e c #6EFEED",
"r c #6FFFED",
"t c #77FFEF",
"y c #78FFEF",
"u c #7DFFEF",
"i c #9292FF",
"p c #BFCCFD",
"a c #93FEF2",
"s c #B8F4F7",
"d c #B0FEF5",
"f c #B7FFF6",
"g c #C9C9FF",
"h c #CCCCFF",
"j c #C1FFF7",
"k c #DAFFFA",
"l c #DDFEFB",
"z c #E4E6FF",
"x c #EDF4FE",
"c c #E6FFFC",
"v c #F2F2FF",
"b c #F3F4FF",
"n c #F2FFFD",
"m c #F6FEFE",
"M c #F9F9FF",
"N c #F8FFFE",
"B c #FCFEFF",
"V c white",
"C c None",
/* pixels */
"CCCCCCCCCCCCCCCCCCCCCCCCCCCCCCCCCCCCCCCCCCCCCCCCCC",
"CCCCCCCCCCCCCCCCCCCCCCCCCCCCCCCCCCCCCCCCCCCCCCCCCC",
"CCCCCCCCCCCCCCCCCCCCCCCCCCCCCCCCCCCCCCCCCCCCCCCCCC",
"CCCCCCCCCCCCCCCCCCC::::::::::::CCCCCCCCCCCCCCCCCCC",
"CCCCCCCCCCCCCCCCCC::::::::::::::CCCCCCCCCCCCCCCCCC",
"CCCCCCCCCCCCCCCCCCC::::::::::::CCCCCCCCCCCCCCCCCCC",
"CCCCCCCCCCCCC::::::::::::::::::::::::CCCCCCCCCCCCC",
"CCCCCCCCCCCC::::::::::::::::::::::::::CCCCCCCCCCCC",
"CCCCCCCCCCCC::::::::::::::::::::::::::CCCCCCCCCCCC",
"CCCCCCCCC::::::::::::::::::::::::::::::::CCCCCCCCC",
"CCCCCCCCC::::::::::::::::::::::::::::::::CCCCCCCCC",
"CCCCCCCCC::::::::::::::::::::::::::::::::CCCCCCCCC",
"CCCCCCC::quuuuu0:::::::::::2yuuuuu5::::::::CCCCCCC",
"CCCCCC:::jVVVVVj:::::::::::4nVVVVV8:::::::::CCCCCC",
"CCCCCC:::dVVVVVd:::::::::::4nVVVVV8:::::::::CCCCCC",
"CCCCCCyrekVVVVVluw0:::::2yuuNVVVVVaru7::::::CCCCCC",
"CCCCCCVVVVVVVVVVVVj:::::4nVVVVVVVVVVVu::::::CCCCCC",
"CCCCCCVVVVVVVVVVVVj:::::4nVVVVVVVVVVVu::::::CCCCCC",
"CCCCCCggggggzVVVVVj:::::2pgggggvVVVVVu::::::CCCCCC",
"CCCCCCX.XXXXiVVVVVj:::::,oXXXX gVVVVVu::::::CCCCCC",
"CCCCCC%$$$$$iVVVVVj:::::,O$$$$XgVVVVVu::::::CCCCCC",
"CCCC:C#$$$$$iVVVVVj:::::,O$$$$XgVVVVVu::::::C:CCCC",
"CCC:::-$$$$$iVVVVVj:::::,O$$$$XgVVVVVu:::::::::CCC",
"CCC:::-$$$$$iVVVVVj:::::,O$$$$XgVVVVVu:::::::::CCC",
"CCC:::;+O&=*iVVBnnf:::::,@OO==*hVVmnnt:::::::::CCC",
"CCC:::1,,sbbMVVj443::::::,,<xbbBVV9442:::::::::CCC",
"CCC::::::jVVVVVj:::::::::::4nVVVVV8::::::::::::CCC",
"CCC::::::fnnnnnf:::::::::::4cnnnnn6::::::::::::CCC",
"CCC::::::3444443::::::::::::444444>::::::::::::CCC",
"CCC::::::::::::::::::::::::::::::::::::::::::::CCC",
"CCC::::::::::::::::::::::::::::::::::::::::::::CCC",
"CCC::::::::::::::::::::::::::::::::::::::::::::CCC",
"CCC::::::::::::::::::::::::::::::::::::::::::::CCC",
"CCC::::::::::::::::::::::::::::::::::::::::::::CCC",
"CCC::::::::::::::::::::::::::::::::::::::::::::CCC",
"CCC::::::::::::::::::::::::::::::::::::::::::::CCC",
"CCC::::::::::::::::::::::::::::::::::::::::::::CCC",
"CCC::::::::::::::::::::::::::::::::::::::::::::CCC",
"CCC::::::::::::::::::::::::::::::::::::::::::::CCC",
"CCC::::::::::::::::::::::::::::::::::::::::::::CCC",
"CCC::::::::::::::::::::::::::::::::::::::::::::CCC",
"CCC:::::::::::::CCC::::::::::::CCC:::::::::::::CCC",
"CCC:::::::::::::CC::::::::::::::CC:::::::::::::CCC",
"CCC:::::::::::::CCC::::::::::::CCC:::>:::::::::CCC",
"CCCCCC:::::::CCCCCCCCC::::::CCCCCCCCC:::::::CCCCCC",
"CCCCCC:::::::CCCCCCCC::::::::CCCCCCCC:::::::CCCCCC",
"CCCCCC:::::::CCCCCCCCC::::::CCCCCCCCC:::::::CCCCCC",
"CCCCCCCCCCCCCCCCCCCCCCCCCCCCCCCCCCCCCCCCCCCCCCCCCC",
"CCCCCCCCCCCCCCCCCCCCCCCCCCCCCCCCCCCCCCCCCCCCCCCCCC",
"CCCCCCCCCCCCCCCCCCCCCCCCCCCCCCCCCCCCCCCCCCCCCCCCCC"
};
