/* XPM */
static char *_462_4a9fe64cfdb7da5c62309dfb78cb5ca112455247e9df089361c8841ea6f18697[] = {
/* columns rows colors chars-per-pixel */
"50 50 62 1 ",
"  c #1D1CFF",
". c #1E1EFF",
"X c #1F1FFF",
"o c #1D2DFD",
"O c #1E2EFD",
"+ c #1D35FD",
"@ c #1C3BFB",
"# c #2020FF",
"$ c #262EFE",
"% c #2D2DFF",
"& c #2E2EFF",
"* c #1359F7",
"= c #1361F7",
"- c #00FFDE",
"; c #00FFDF",
": c #01FFDF",
"> c #00F4E1",
", c #05F4E2",
"< c #00F9E0",
"1 c #00FEE0",
"2 c #05FEE0",
"3 c #05FFE0",
"4 c #05FEE1",
"5 c #0AFFE1",
"6 c #0BFFE1",
"7 c #1DFEE4",
"8 c #3EFFE7",
"9 c #3FFFE7",
"0 c #42FFE7",
"q c #47FFE8",
"w c #5BFFEB",
"e c #5CFFEB",
"r c #60FFEC",
"t c #6DFFED",
"y c #6EFFED",
"u c #6FFFED",
"i c #77FFEF",
"p c #78FFEF",
"a c #7DFFEF",
"s c #9292FF",
"d c #BFCCFD",
"f c #94FFF2",
"g c #B8F4F7",
"h c #B0FEF5",
"j c #B7FFF6",
"k c #C9C9FF",
"l c #CCCCFF",
"z c #C1FFF7",
"x c #DAFFFA",
"c c #DDFEFB",
"v c #E4E6FF",
"b c #EDF4FE",
"n c #E6FFFC",
"m c #F2F2FF",
"M c #F3F4FF",
"N c #F2FFFD",
"B c #F6FEFE",
"V c #F9F9FF",
"C c #F8FFFE",
"Z c #FCFEFF",
"A c white",
"S c None",
/* pixels */
"SSSSSSSSSSSSSSSSSSSSSSSSSSSSSSSSSSSSSSSSSSSSSSSSSS",
"SSSSSSSSSSSSSSSSSSSSSSSSSSSSSSSSSSSSSSSSSSSSSSSSSS",
"SSSSSSSSSSSSSSSSSSSSSSSSSSSSSSSSSSSSSSSSSSSSSSSSSS",
"SSSSSSSSSSSSSSSSSSS;;;;;;;;;;;;SSSSSSSSSSSSSSSSSSS",
"SSSSSSSSSSSSSSSSSS;;;;;;;;;;;;;;SSSSSSSSSSSSSSSSSS",
"SSSSSSSSSSSSSSSSSSS;;;;;;;;;;;;SSSSSSSSSSSSSSSSSSS",
"SSSSSSSSSSSSS;;;;;;;;;;;;;;;;;;;;;;;;SSSSSSSSSSSSS",
"SSSSSSSSSSSS;;;;;;;;;;;;;;;;;;;;;;;;;;SSSSSSSSSSSS",
"SSSSSSSSSSSS;;;;;;;;;;;;;;;;;;;;;;;;;;SSSSSSSSSSSS",
"SSSSSSSSS;;;;;;;;;;;;;;;;;;;;;;;;;;;;;;;;SSSSSSSSS",
"SSSSSSSSS;;;;;;;;;;;;;;;;;;;;;;;;;;;;;;;;SSSSSSSSS",
"SSSSSSSSS;;;;;;1;;;;;;;;;;;;;;;;;;;;;;;;;SSSSSSSSS",
"SSSSSSS;;raaaaaw;;;;;;;;;;;3paaaaa7;;;;;;;;SSSSSSS",
"SSSSSS;;;zAAAAAz;;;;;;;;;;;5NAAAAA0;;;;;;;;;SSSSSS",
"SSSSSS;;;hAAAAAh;;;;;;;;;;;5NAAAAA0;;;;;;;;;SSSSSS",
"SSSSSSpuyxAAAAAcate;;;;;3paaCAAAAAfua9;;;;;;SSSSSS",
"SSSSSSAAAAAAAAAAAAz-;;;;5NAAAAAAAAAAAa;;;;;;SSSSSS",
"SSSSSSAAAAAAAAAAAAz-;;;;5NAAAAAAAAAAAa;;;;;;SSSSSS",
"SSSSSSkkkkkkvAAAAAz-;;;;3dkkkkkmAAAAAa;;;;;;SSSSSS",
"SSSSSSX.....sAAAAAz-;;;;>o.... kAAAAAa;;;;;;SSSSSS",
"SSSSSS######sAAAAAz-;;;;>O####.kAAAAAa;;;;;;SSSSSS",
"SSSS;S@#####sAAAAAz-;;;;>O####.kAAAAAa;;;;;;S;SSSS",
"SSS;;-*#####sAAAAAz-;;;;>O####.kAAAAAa;;;;;;;;;SSS",
"SSS;;-*#####sAAAAAz-;;;;>O####.kAAAAAa;;;;;;;;;SSS",
"SSS;;;=OO$&%sAAZNNj-;;;;>+OO&&%lAABNNi;;;;;;;;;SSS",
"SSS;;;<>>gMMVAAz564;;;;;;>>,bMMZAAq553;;;;;;;;;SSS",
"SSS;;;;;-zAAAAAz-;;;;;;;;;;5NAAAAA0;;;;;;;;;;;;SSS",
"SSS;;;;;-jNNNNNj-;;;;;;;;;;5nNNNNN8;;;;;;;;;;;;SSS",
"SSS;;;;;;4666662;;;;;;;;;;;;555555:;;;;;;;;;;;;SSS",
"SSS;;;;;;;;;;;;;;;;;;;;;;;;;;;;;;;;;;;;;;;;;;;;SSS",
"SSS;;;;;;;;;;;;;;;;;;;;;;;;;;;;;;;;;;;;;;;;;;;;SSS",
"SSS;;;;;;;;;;;;;;;;;;;;;;;;;;;;;;;;;;;;;;;;;;;;SSS",
"SSS;;;;;;;;;;;;;;;;;;;;;;;;;;;;;;;;;;;;;;;;;;;;SSS",
"SSS;;;;;;;;;;;;;;;;;;;;;;;;;;;;;;;;;;;;;;;;;;;;SSS",
"SSS;;;;;;;;;;;;;;;;;;;;;;;;;;;;;;;;;;;;;;;;;;;;SSS",
"SSS;;;;;;;;;;;;;;;;;;;;;;;;;;;;;;;;;;;;;;;;;;;;SSS",
"SSS;;;;;;;;;;;;;;;;;;;;;;;;;;;;;;;;;;;;;;;;;;;;SSS",
"SSS;;;;;;;;;;;;;;;;;;;;;;;;;;;;;;;;;;;;;;;;;;;;SSS",
"SSS;;;;;;;;;;;;;;;;;;;;;;;;;;;;;;;;;;;;;;;;;;;;SSS",
"SSS;;;;;;;;;;;;;;;;;;;;;;;;;;;;;;;;;;;;;;;;;;;;SSS",
"SSS;;;;;;;;;:;;;;;;;;;;;;;;;:;;;;;;;;;;;:;;;;;;SSS",
"SSS;;;;;;;SS;;;;;;;;;;SSSSSS;;;;;;;;;;SS;;;;;;;SSS",
"SSS;;;;;;;SS;;;;;;;;;;SSSSSS;;;;;;;;;;SS;;;;;;;SSS",
"SSS;;;;;;SSSS;;;;;;;;;SSSSSS;;;;;;:;;SSSS;;;;;;SSS",
"SSS;;;SSSSSSSSS;;;;;;;SSSSSS;;;;;;;SSSSSSSSS;;;SSS",
"SSS;;;;SSSSSSSS;;;;;;;SSSSSS;;;;;;;SSSSSSSS;;;;SSS",
"SSS;;;SSSSSSSSS;;;;;;;SSSSSS;;;;;;;SSSSSSSSS;;;SSS",
"SSSSSSSSSSSSSSSSSSSSSSSSSSSSSSSSSSSSSSSSSSSSSSSSSS",
"SSSSSSSSSSSSSSSSSSSSSSSSSSSSSSSSSSSSSSSSSSSSSSSSSS",
"SSSSSSSSSSSSSSSSSSSSSSSSSSSSSSSSSSSSSSSSSSSSSSSSSS"
};
