/* XPM */
static char *_d23b7684b744286df89ff6f41c09057Jlz9WupueDu1lA0H[] = {
/* columns rows colors chars-per-pixel */
"100 100 32 1 ",
"  c None",
". c #2221FF",
"X c #2222FF",
"o c #2525FF",
"O c #2626FF",
"+ c #223EFC",
"@ c #3E3EFF",
"# c #196EF4",
"$ c #1295EF",
"% c #00FFDD",
"& c #00FFDE",
"* c #02FEDF",
"= c #05E8E2",
"- c #0EFFE0",
"; c #19FFE1",
": c #1BFFE2",
"> c #1CFFE2",
", c #59FFE9",
"< c #73FFEE",
"1 c #76E7F0",
"2 c #839EFB",
"3 c #9393FF",
"4 c #9E9EFF",
"5 c #82FFEF",
"6 c #BCFFF6",
"7 c #C9C9FF",
"8 c #CFFFF9",
"9 c #E7E8FF",
"0 c #E4FFFC",
"q c #E5FFFC",
"w c #F4FDFE",
"e c white",
/* pixels */
"                                                                                                    ",
"                                                                                                    ",
"                                                                                                    ",
"                                                                                                    ",
"                                                                                                    ",
"                                                                                                    ",
"                                      &&&&&&&&&&&&&&&&&&&&&&&&                                      ",
"                                     &&&&&&&&&&&&&&&&&&&&&&&&&&                                     ",
"                                     &&&&&&&&&&&&&&&&&&&&&&&&&&                                     ",
"                                     &&&&&&&&&&&&&&&&&&&&&&&&&&                                     ",
"                                     &&&&&&&&&&&&&&&&&&&&&&&&&&                                     ",
"                                      &&&&&&&&&&&&&&&&&&&&&&&&                                      ",
"                          &&&&&&&&&& &&&&&&&&&&&&&&&&&&&&&&&&&& &&&&&&&&&&                          ",
"                         &&&&&&&&&&&&&&&&&&&&&&&&&&&&&&&&&&&&&&&&&&&&&&&&&&                         ",
"                         &&&&&&&&&&&&&&&&&&&&&&&&&&&&&&&&&&&&&&&&&&&&&&&&&&                         ",
"                         &&&&&&&&&&&&&&&&&&&&&&&&&&&&&&&&&&&&&&&&&&&&&&&&&&                         ",
"                         &&&&&&&&&&&&&&&&&&&&&&&&&&&&&&&&&&&&&&&&&&&&&&&&&&                         ",
"                         &&&&&&&&&&&&&&&&&&&&&&&&&&&&&&&&&&&&&&&&&&&&&&&&&&                         ",
"                   &&&& &*&&&&&&&&&&&&&&&&&&&&&&&&&&&&&&&&&&&&&&&&&&&&&&&&*& &&&&                   ",
"                  &&&&&&&&&&&&&&&&&&&&&&&&&&&&&&&&&&&&&&&&&&&&&&&&&&&&&&&&&&&&&&&&                  ",
"                  &&&&&&&&&&&&&&&&&&&&&&&&&&&&&&&&&&&&&&&&&&&&&&&&&&&&&&&&&&&&&&&&                  ",
"                  &&&&&&&&&&&&&&&&&&&&&&&&&&&&&&&&&&&&&&&&&&&&&&&&&&&&&&&&&&&&&&&&                  ",
"                  &&&&&&&&&&&&*&&&&&&&&&&&&&&&&&&&&&&&&&&&&&&&&&&&&&&&&&&&&&&&&&&&                  ",
"                   &&&&&&&&&&&**&&&&&&&&&&&&&&&&&&&&&&&&&&&&&&&&&&&&&&&&&&&&&&&&&                   ",
"                  :::::::::::::*&&&&&&&&&&&&&&&&&&&&&&&&>>::::::::::**&&&&&&&&&&&&                  ",
"             &&&&&<000000000000<&&&&&&&&&&&&&&&&&&&&&&&:8q0q00000000<*&&&&&&&&&&&&&&&&&             ",
"            &&&&&&5eeeeeeeeeeee5&&&&&&&&&&&&&&&&&&&&&&&:qeeeeeeeeeee5%%&&&&&&&&&&&&&&&&&            ",
"            &&&&&&5eeeeeeeeeeee5&&&&&&&&&&&&&&&&&&&&&&&:qeeeeeeeeeee5*&&&&&&&&&&&&&&&&&&            ",
"            &&&&&&,weeeeeeeeeew,&&&&&&&&&&&&&&&&&&&&&&&:0eeeeeeeeeee5&&&&&&&&&&&&&&&&&&&            ",
"            &&&&&%<eeeeeeeeeeee<%&&&&&&&&&&&&&&&&&&&&&&:0eeeeeeeeeee5&&&&&&&&&&&&&&&&&&&            ",
"            >:-::*5eeeeeeeeeeee5>>;*>*&&&&&&&&&&&&::::::0eeeeeeeeeee5*-:::>&&&&&&&&&&&&&            ",
"            q86q06qeeeeeeeeeeeew0088q<%&&&&&&&&&&:8q0000eeeeeeeeeeeee8600q8>&&&&&&&&&&&&            ",
"            eeeeeeeeeeeeeeeeeeeeeeeee5%&&&&&&&&&&:0eeeeeeeeeeeeeeeeeeeeeee0:&&&&&&&&&&&&            ",
"            eeeeeeeeeeeeeeeeeeeeeeeee5%&&&&&&&&&&:0eeeeeeeeeeeeeeeeeeeeeee0:&&&&&&&&&&&&            ",
"            eeeeeeeeeeeeeeeeeeeeeeeee5%&&&&&&&&&&:0eeeeeeeeeeeeeeeeeeeeeee0:&&&&&&&&&&&&            ",
"            eeeeeeeeeeeeeeeeeeeeeeeee5%&&&&&&&&&&:0eeeeeeeeeeeeeeeeeeeeeee0:&&&&&&&&&&&&            ",
"            eeeeeeeeeeeeeeeeeeeeeeeee5%&&&&&&&&&&:0eeeeeeeeeeeeeeeeeeeeeee0:&&&&&&&&&&&&            ",
"            3333333333334weeeeeeeeeee5%&&&&&&&&&&&2333333333337eeeeeeeeeee0:&&&&&&&&&&&&            ",
"            o...........@9eeeeeeeeeee5%&&&&&&&&&&=+...........3eeeeeeeeeee0:&&&&&&&&&&&&            ",
"            oooooooooooo@9eeeeeeeeeee5%&&&&&&&&&&=+oooooooooo.3eeeeeeeeeee0:&&&&&&&&&&&&            ",
"            oooooooooooo@9eeeeeeeeeee5%&&&&&&&&&&=+oooooooooo.3eeeeeeeeeee0:&&&&&&&&&&&&            ",
"            oooooooooooo@9eeeeeeeeeee5%&&&&&&&&&&=+oooooooooo.3eeeeeeeeeee0:&&&&&&&&&&&&            ",
"             ooooooooooo@9eeeeeeeeeee5%&&&&&&&&&&=+oooooooooo.3eeeeeeeeeee0:&&&&&&&&&&&             ",
"       &&&& #ooooooooooo@9eeeeeeeeeee5%&&&&&&&&&&=+oooooooooo.3eeeeeeeeeee0:&&&&&&&&&&&& &&&&       ",
"      &&&&&%$.oooooooooo@9eeeeeeeeeee5%&&&&&&&&&&=+oooooooooo.3eeeeeeeeeee0:&&&&&&&&&&&&&&&&&&      ",
"      &&&&&%$.oooooooooo@9eeeeeeeeeee5%&&&&&&&&&&=+oooooooooo.3eeeeeeeeeee0:&&&&&&&&&&&&&&&&&&      ",
"      &&&&&%$.oooooooooo@9eeeeeeeeeee5%&&&&&&&&&&=+oooooooooo.3eeeeeeeeeee0:&&&&&&&&&&&&&&&&&&      ",
"      &&&&&%$.oooooooooo@9eeeeeeeeeee5%&&&&&&&&&&=+oooooooooo.3eeeeeeeeeee0:&&&&&&&&&&&&&&&&&&      ",
"      &&&&&&$.ooooooooo.@9eeeeeeeeeee5%&&&&&&&&&&=+oooooooooo.3eeeeeeeeeee0:&&&&&&&&&&&&&&&&&&      ",
"      &&&&&&$++++++@@@@@@9eeeeew00000<%&&&&&&&&&&=++++++@@@@@@4eeeeew000008:&&&&&&&&&&&&&&&&&&      ",
"      &&&&&&&=====1999999eeeeee5::>>:*&&&&&&&&&&&%======999999weeeee5::::::&&&&&&&&&&&&&&&&&&&      ",
"      &&&&&&&&&&&%5eeeeeeeeeeee5%&%***&&&&&&&&&&&&%&&&&:0eeeeeeeeeee5%&&&&&&&&&&&&&&&&&&&&&&&&      ",
"      &&&&&&&&&&&%5eeeeeeeeeeee5%&&&&&&&&&&&&&&&&&&&&&&:0eeeeeeeeeee5&&&&&&&&&&&&&&&&&&&&&&&&&      ",
"      &&&&&&&&&&&%5eeeeeeeeeeee5%&&&&&&&&&&&&&&&&&&&&&&:0eeeeeeeeeee5&&&&&&&&&&&&&&&&&&&&&&&&&      ",
"      &&&&&&&&&&&%5eeeeeeeeeeee5%&&&&&&&&&&&&&&&&&&&&&&:0eeeeeeeeeee5&&&&&&&&&&&&&&&&&&&&&&&&&      ",
"      &&&&&&&&&&&%<000000000000<%&&&&&&&&&&&&&&&&&&&&&&:800000000000<%&&&&&&&&&&&&&&&&&&&&&&&&      ",
"      &&&&&&&&&&&&*>>>>>>>>>>>>*&&&&&&&&&&&&&&&&&&&&&&&&::::::::::::-&&&&&&&&&&&&&&&&&&&&&&&&&      ",
"      &&&&&&&&&&&&**&%&&&&&&%**&&&&&&&&&&&&&&&&&&&&&&&&&&&&&&&&&&&&&&&&&&&&&&&&&&&&&&&&&&&&&&&      ",
"      &&&&&&&&&&&&&&&&&&&&&&&&&&&&&&&&&&&&&&&&&&&&&&&&&&&&&&&&&&&&&&&&&&&&&&&&&&&&&&&&&&&&&&&&      ",
"      &&&&&&&&&&&&&&&&&&&&&&&&&&&&&&&&&&&&&&&&&&&&&&&&&&&&&&&&&&&&&&&&&&&&&&&&&&&&&&&&&&&&&&&&      ",
"      &&&&&&&&&&&&&&&&&&&&&&&&&&&&&&&&&&&&&&&&&&&&&&&&&&&&&&&&&&&&&&&&&&&&&&&&&&&&&&&&&&&&&&&&      ",
"      &&&&&&&&&&&&&&&&&&&&&&&&&&&&&&&&&&&&&&&&&&&&&&&&&&&&&&&&&&&&&&&&&&&&&&&&&&&&&&&&&&&&&&&&      ",
"      &&&&&&&&&&&&&&&&&&&&&&&&&&&&&&&&&&&&&&&&&&&&&&&&&&&&&&&&&&&&&&&&&&&&&&&&&&&&&&&&&&&&&&&&      ",
"      &&&&&&&&&&&&&&&&&&&&&&&&&&&&&&&&&&&&&&&&&&&&&&&&&&&&&&&&&&&&&&&&&&&&&&&&&&&&&&&&&&&&&&&&      ",
"      &&&&&&&&&&&&&&&&&&&&&&&&&&&&&&&&&&&&&&&&&&&&&&&&&&&&&&&&&&&&&&&&&&&&&&&&&&&&&&&&&&&&&&&&      ",
"      &&&&&&&&&&&&&&&&&&&&&&&&&&&&&&&&&&&&&&&&&&&&&&&&&&&&&&&&&&&&&&&&&&&&&&&&&&&&&&&&&&&&&&&&      ",
"      &&&&&&&&&&&&&&&&&&&&&&&&&&&&&&&&&&&&&&&&&&&&&&&&&&&&&&&&&&&&&&&&&&&&&&&&&&&&&&&&&&&&&&&&      ",
"      &&&&&&&&&&&&&&&&&&&&&&&&&&&&&&&&&&&&&&&&&&&&&&&&&&&&&&&&&&&&&&&&&&&&&&&&&&&&&&&&&&&&&&&&      ",
"      &&&&&&&&&&&&&&&&&&&&&&&&&&&&&&&&&&&&&&&&&&&&&&&&&&&&&&&&&&&&&&&&&&&&&&&&&&&&&&&&&&&&&&&&      ",
"      &&&&&&&&&&&&&&&&&&&&&&&&&&&&&&&&&&&&&&&&&&&&&&&&&&&&&&&&&&&&&&&&&&&&&&&&&&&&&&&&&&&&&&&&      ",
"      &&&&&&&&&&&&&&&&&&&&&&&&&&&&&&&&&&&&&&&&&&&&&&&&&&&&&&&&&&&&&&&&&&&&&&&&&&&&&&&&&&&&&&&&      ",
"      &&&&&&&&&&&&&&&&&&&&&&&&&&&&&&&&&&&&&&&&&&&&&&&&&&&&&&&&&&&&&&&&&&&&&&&&&&&&&&&&&&&&&&&&      ",
"      &&&&&&&&&&&&&&&&&&&&&&&&&&&&&&&&&&&&&&&&&&&&&&&&&&&&&&&&&&&&&&&&&&&&&&&&&&&&&&&&&&&&&&&&      ",
"      &&&&&&&&&&&&&&&&&&&&&&&&&&&&&&&&&&&&&&&&&&&&&&&&&&&&&&&&&&&&&&&&&&&&&&&&&&&&&&&&&&&&&&&&      ",
"      &&&&&&&&&&&&&&&&&&&&&&&&&&&&&&&&&&&&&&&&&&&&&&&&&&&&&&&&&&&&&&&&&&&&&&&&&&&&&&&&&&&&&&&&      ",
"      &&&&&&&&&&&&&&&&&&&&&&&&&&&&&&&&&&&&&&&&&&&&&&&&&&&&&&&&&&&&&&&&&&&&&&&&&&&&&&&&&&&&&&&&      ",
"      &&&&&&&&&&&&&&&&&&&&&&&&&&&&&&&&&&&&&&&&&&&&&&&&&&&&&&&&&&&&&&&&&&&&&&&&&&&&&&&&&&&&&&&&      ",
"      &&&&&&&&&&&&&&&&&&&&&&&&&&&&&&&&&&&&&&&&&&&&&&&&&&&&&&&&&&&&&&&&&&&&&&&&&&&&&&&&&&&&&&&&      ",
"      &&&&&&&&&&&&&&&&&&&&&&&&&&&&&&&&&&&&&&&&&&&&&&&&&&&&&&&&&&&&&&&&&&&&&&&&&&&&&&&&&&&&&&&&      ",
"      &&&&&&&&&&&&&&&&&&&&&&&&&&&&&&&&&&&&&&&&&&&&&&&&&&&&&&&&&&&&&&&&&&&&&&&&&&&&&&&&&&&&&&&&      ",
"      &&&&&&&&&&&&&&&&&&&&&&&&&&&&&&&&&&&&&&&&&&&&&&&&&&&&&&&&&&&&&&&&&&&&&&&&&&&&&&&&&&&&&&&&      ",
"      &&&&&&&&&&&&&& && &-&&&&&&&&&&&&&&&&&&& &&&&&&&& &-&&&&&&&&&&&&&&&&&&& && &-&&&&&&&&&&&&      ",
"      &&&&&&&&&&&&&      &&&&&&&&&&&&&&&&&&&            &&&&&&&&&&&&&&&&&&&      &&&&&&&&&&&&&      ",
"      &&&&&&&&&&&&&      &&&&&&&&&&&&&&&&&&&            &&&&&&&&&&&&&&&&&&&      &&&&&&&&&&&&&      ",
"      &&&&&&&&&&&&&      &&&&&&&&&&&&&&&&&&&            &&&&&&&&&&&&&&&&&&&      &&&&&&&&&&&&&      ",
"      &&&&&&&&&&&&&      &&&&&&&&&&&&&&&&&&&            &&&&&&&&&&&&&&&&&&&      &&&&&&&&&&&&&      ",
"      &&&&&&&&&&&&&      &&&&&&&&&&&&&&&&&&&            &&&&&&&&&&&&&&&&&&&      &&&&&&&&&&&&&      ",
"      &&&&&&& &&&&        &&& &&&&&&&&&&&&&&            &&&&&&&&&&&&-& &&&        &&&& &&&&&&&      ",
"      &&&&&&                   &&&&&&&&&&&&&            &&&&&&&&&&&&&                   &&&&&&      ",
"      &&&&&&&                  &&&&&&&&&&&&&            &&&&&&&&&&&&&                  &&&&&&&      ",
"      &&&&&&&                  &&&&&&&&&&&&&            &&&&&&&&&&&&&                  &&&&&&&      ",
"      &&&&&&&                  &&&&&&&&&&&&&            &&&&&&&&&&&&&                  &&&&&&&      ",
"      &&&&&&&                  &&&&&&&&&&&&&            &&&&&&&&&&&&&                  &&&&&&&      ",
"      &&&&&&                   &&&&&&&&&&&&&            &&&&&&&&&&&&&                   &&&&&&      ",
"                                                                                                    ",
"                                                                                                    ",
"                                                                                                    ",
"                                                                                                    ",
"                                                                                                    ",
"                                                                                                    "
};
