/* XPM */
static char *e0943f5a8a9c44899b7b7e720c46ebc7pFcW1SDN8agGEPVC[] = {
/* columns rows colors chars-per-pixel */
"100 100 33 1 ",
"  c None",
". c #2221FF",
"X c #2222FF",
"o c #2525FF",
"O c #2626FF",
"+ c #223EFC",
"@ c #3E3EFF",
"# c #196EF4",
"$ c #1393EF",
"% c #119EED",
"& c #00FFDD",
"* c #03FCDF",
"= c #00FFDE",
"- c #05E8E2",
"; c #0EFFE0",
": c #19FFE1",
"> c #1BFFE2",
", c #1CFFE2",
"< c #59FFE9",
"1 c #73FFEE",
"2 c #76E7F0",
"3 c #839EFB",
"4 c #9393FF",
"5 c #9E9EFF",
"6 c #82FFEF",
"7 c #BCFFF6",
"8 c #C9C9FF",
"9 c #CFFFF9",
"0 c #E7E8FF",
"q c #E4FFFC",
"w c #E5FFFC",
"e c #F4FDFE",
"r c white",
/* pixels */
"                                                                                                    ",
"                                                                                                    ",
"                                                                                                    ",
"                                                                                                    ",
"                                                                                                    ",
"                                                                                                    ",
"                                      ========================                                      ",
"                                     ==========================                                     ",
"                                     ==========================                                     ",
"                                     ==========================                                     ",
"                                     ==========================                                     ",
"                                      ========================                                      ",
"                          ========== ========================== ==========                          ",
"                         ==================================================                         ",
"                         ==================================================                         ",
"                         ==================================================                         ",
"                         ==================================================                         ",
"                         ==================================================                         ",
"                   ==============================================================                   ",
"                  ================================================================                  ",
"                  ================================================================                  ",
"                  ================================================================                  ",
"                  ================================================================                  ",
"                  ================================================================                  ",
"                  >>>>>>>>>>>>>;========================,,>>>>>>>>>>;=============                  ",
"             =====1qqwqqqqqqqqq1=======================>9wqqqqqqqwqq1==================             ",
"            ======6rrrrrrrrrrrr6=======================>wrrrrrrrrrrr6===================            ",
"            ======6rrrrrrrrrrrr6=======================>qrrrrrrrrrrr6===================            ",
"            ======<errrrrrrrrre<=======================>qrrrrrrrrrrr6===================            ",
"            ======1rrrrrrrrrrrr1=======================>qrrrrrrrrrrr6===================            ",
"            ,>;>>*6rrrrrrrrrrrr6>>>;>;============>>>>>>qrrrrrrrrrrr6;;>>>,=============            ",
"            w97wq7wrrrrrrrrrrrreqw97w1===========>9wqqqqrrrrrrrrrrrre97qww9,============            ",
"            rrrrrrrrrrrrrrrrrrrrrrrrr6===========>wrrrrrrrrrrrrrrrrrrrrrrrq>============            ",
"            rrrrrrrrrrrrrrrrrrrrrrrrr6===========>qrrrrrrrrrrrrrrrrrrrrrrrq>============            ",
"            rrrrrrrrrrrrrrrrrrrrrrrrr6===========>qrrrrrrrrrrrrrrrrrrrrrrrq>============            ",
"            rrrrrrrrrrrrrrrrrrrrrrrrr6===========>qrrrrrrrrrrrrrrrrrrrrrrrq>============            ",
"            rrrrrrrrrrrrrrrrrrrrrrrrr6===========>wrrrrrrrrrrrrrrrrrrrrrrrq>============            ",
"            4444444444445errrrrrrrrrr6============3444444444448rrrrrrrrrrrq>============            ",
"            X.XX........@0rrrrrrrrrrr6===========-+...........4rrrrrrrrrrrq>============            ",
"            OoOXoooooooo@0rrrrrrrrrrr6===========-+oooooooooo.4rrrrrrrrrrrq>============            ",
"            OOOOoooooooo@0rrrrrrrrrrr6===========-+oooooooooo.4rrrrrrrrrrrq>============            ",
"            OOOXoooooooo@0rrrrrrrrrrr6===========-+oooooooooo.4rrrrrrrrrrrq>============            ",
"             OXOoooooooo@0rrrrrrrrrrr6===========-+oooooooooo.4rrrrrrrrrrrq>===========             ",
"       ==== #OOOoooooooo@0rrrrrrrrrrr6===========-+oooooooooo.4rrrrrrrrrrrw>============ ====       ",
"      ======$.oooooooooo@0rrrrrrrrrrr6===========-+oooooooooo.4rrrrrrrrrrrq>==================      ",
"      ======$.oooooooooo@0rrrrrrrrrrr6===========-+oooooooooo.4rrrrrrrrrrrq>==================      ",
"      ======$.oooooooooo@0rrrrrrrrrrr6===========-+oooooooooo.4rrrrrrrrrrrq>==================      ",
"      ======$.oooooooooo@0rrrrrrrrrrr6===========-+oooooooooo.4rrrrrrrrrrrq>==================      ",
"      ======$XOOooooooo.@0rrrrrrrrrrr6===========-+oooooooooo.4rrrrrrrrrrrq>==================      ",
"      ======%++++++@@@@@@0rrrrreqqqww1===========-++++++@@@@@@5rrrrreqqwqq9>==================      ",
"      ======*-----2000000rrrrrr6>>>>>;============------000000errrrr6>>>>>>===================      ",
"      ============6rrrrrrrrrrrr6=======================>wrrrrrrrrrrr6=========================      ",
"      ============6rrrrrrrrrrrr6=======================>qrrrrrrrrrrr6=========================      ",
"      ============6rrrrrrrrrrrr6=======================>qrrrrrrrrrrr6=========================      ",
"      ============6rrrrrrrrrrrr6=======================>qrrrrrrrrrrr6=========================      ",
"      ============1qqqqwwqqqqqq1=======================>9qqqqqqqqqqw1=========================      ",
"      ============;>>>>>>>>>>>>;========================>>>>>>>>>>>>;=========================      ",
"      ========================================================================================      ",
"      ========================================================================================      ",
"      ========================================================================================      ",
"      ========================================================================================      ",
"      ========================================================================================      ",
"      ========================================================================================      ",
"      ========================================================================================      ",
"      ========================================================================================      ",
"      ========================================================================================      ",
"      ========================================================================================      ",
"      ========================================================================================      ",
"      ========================================================================================      ",
"      ========================================================================================      ",
"      ========================================================================================      ",
"      ========================================================================================      ",
"      ========================================================================================      ",
"      ========================================================================================      ",
"      ========================================================================================      ",
"      ========================================================================================      ",
"      ========================================================================================      ",
"      ========================================================================================      ",
"      ========================================================================================      ",
"      ========================================================================================      ",
"      ========================================================================================      ",
"      ========================== === ========================== === ==========================      ",
"      =========================       ========================       =========================      ",
"      ==========================     ==========================     ==========================      ",
"      ==========================     ==========================     ==========================      ",
"      ==========================     ==========================     ==========================      ",
"      ==========================     ==========================     ==========================      ",
"       ==== ===================       ==== ============== ====       ======;============ ====       ",
"             ============                   ============                   ============             ",
"            =============                  ==============                  =============            ",
"            =============                  ==============                  =============            ",
"            =============                  ==============                  =============            ",
"            =============                  ==============                  =============            ",
"             ============                   ============                   ============             ",
"                                                                                                    ",
"                                                                                                    ",
"                                                                                                    ",
"                                                                                                    ",
"                                                                                                    ",
"                                                                                                    "
};
