/* XPM */
static char *_a81cc927ef34212a0b7800cd068b642ORSFX9pKGhkklI0T[] = {
/* columns rows colors chars-per-pixel */
"50 50 21 1 ",
"  c None",
". c #FFF200",
"X c #FFF20A",
"o c #FFF30D",
"O c #FFF426",
"+ c #FFF533",
"@ c #FFF536",
"# c #FFF540",
"$ c #FFF647",
"% c #FFF75C",
"& c #FFF75E",
"* c #FFF766",
"= c #FFF982",
"- c #FFF984",
"; c #FFFA99",
": c #FFFAA1",
"> c #FFFCBF",
", c #FFFCC2",
"< c #FFFCC7",
"1 c #FFFCC9",
"2 c #FFFCCC",
/* pixels */
"                                                  ",
"                                                  ",
"                                                  ",
"                                                  ",
"                                                  ",
"                                                  ",
"                      XXX                         ",
"                 *...........2                    ",
"               %...............%                  ",
"              ...................                 ",
"            =.....................,               ",
"           @.......................:              ",
"          >.........................#             ",
"          ...........................             ",
"         .............................            ",
"        ..............................#           ",
"        ...............................           ",
"       +...............................;          ",
"       .................................          ",
"      <.................................          ",
"      ..................................#         ",
"      ...................................         ",
"      ...................................         ",
"      ...................................         ",
"      ...................................         ",
"      ...................................         ",
"      ...................................         ",
"      ...................................         ",
"      ...................................         ",
"      ..................................#         ",
"      >.................................          ",
"       .................................          ",
"       .................................          ",
"        ...............................           ",
"        ...............................           ",
"         .............................            ",
"         %...........................1            ",
"          ...........................             ",
"           .........................              ",
"            .......................               ",
"             -...................-                ",
"               .................                  ",
"                 o...........O                    ",
"                    XX...X$                       ",
"                                                  ",
"                                                  ",
"                                                  ",
"                                                  ",
"                                                  ",
"                                                  "
};
