/* XPM */
static char *t531gbxk[] = {
/* columns rows colors chars-per-pixel */
"100 100 2 1 ",
"  c None",
". c #FFCC00",
/* pixels */
"                                                                                                    ",
"                                          ................                                          ",
"                                     .........................                                      ",
"                                  ................................                                  ",
"                                ....................................                                ",
"                             .........................................                              ",
"                           .............................................                            ",
"                          ................................................                          ",
"                        ....................................................                        ",
"                       ......................................................                       ",
"                     ..........................................................                     ",
"                    ............................................................                    ",
"                   ..............................................................                   ",
"                  ................................................................                  ",
"                 ..................................................................                 ",
"                ....................................................................                ",
"               ......................................................................               ",
"              ........................................................................              ",
"             ..........................................................................             ",
"            ............................................................................            ",
"           .............................................................................            ",
"           ..............................................................................           ",
"          ................................................................................          ",
"         ..................................................................................         ",
"         ..................................................................................         ",
"        ....................................................................................        ",
"       .....................................................................................        ",
"       ......................................................................................       ",
"      .......................................................................................       ",
"      ........................................................................................      ",
"     .........................................................................................      ",
"     ..........................................................................................     ",
"     ..........................................................................................     ",
"    ............................................................................................    ",
"    ............................................................................................    ",
"   .............................................................................................    ",
"   ..............................................................................................   ",
"   ..............................................................................................   ",
"   ..............................................................................................   ",
"  ...............................................................................................   ",
"  ................................................................................................  ",
"  ................................................................................................  ",
"  ................................................................................................  ",
"  ................................................................................................  ",
" .................................................................................................  ",
" .................................................................................................. ",
" .................................................................................................. ",
" .................................................................................................. ",
" .................................................................................................. ",
" .................................................................................................. ",
" .................................................................................................. ",
" .................................................................................................. ",
" .................................................................................................. ",
" ................................................ ................................................. ",
" ................................................  ................................................ ",
" ...............................................   ................................................ ",
" ...............................................    ............................................... ",
" ..............................................     ............................................... ",
" ..............................................      .............................................. ",
" .............................................       .............................................. ",
" .............................................        ............................................  ",
"  ............................................        ............................................  ",
"  ...........................................          ...........................................  ",
"  ...........................................          ...........................................  ",
"  ..........................................            ..........................................  ",
"  ..........................................            .........................................   ",
"   ........................................             .........................................   ",
"   ........................................              ........................................   ",
"   .......................................               ........................................   ",
"   .......................................                ......................................    ",
"    .....................................                 ......................................    ",
"    .....................................                  .....................................    ",
"     ...................................                   ....................................     ",
"     ...................................                    ...................................     ",
"     ..................................                     ..................................      ",
"      .................................                      .................................      ",
"      ................................                       ................................       ",
"       ...............................                        ...............................       ",
"       ..............................                         ..............................        ",
"        .............................                          .............................        ",
"         ............................                          ............................         ",
"         ...........................                            ..........................          ",
"          ..........................                            ..........................          ",
"           ........................                             .........................           ",
"           ........................                              .......................            ",
"            ......................                               .......................            ",
"             .....................                                .....................             ",
"              ...................                                 ....................              ",
"               ..................                                  ..................               ",
"                ................                                   .................                ",
"                 ...............                                    ...............                 ",
"                  .............                                     ..............                  ",
"                   ............                                      ............                   ",
"                    ..........                                       ...........                    ",
"                     .........                                        ........                      ",
"                       ......                                         .......                       ",
"                        .....                                          .....                        ",
"                          ..                                           ...                          ",
"                                                                                                    ",
"                                                                                                    "
};
