/* XPM */
static char *_730_87139e74d2518db3f8f0f76c6a12e807e4265b0e10b7f5d36034affee31a8dac[] = {
/* columns rows colors chars-per-pixel */
"50 50 24 1 ",
"  c #FFF200",
". c #FFF20A",
"X c #FFF30D",
"o c #FFF426",
"O c #FFF533",
"+ c #FFF536",
"@ c #FFF540",
"# c #FFF647",
"$ c #FFF64F",
"% c #FFF75C",
"& c #FFF75E",
"* c #FFF766",
"= c #FFF982",
"- c #FFF984",
"; c #FFF989",
": c #FFFAA1",
"> c #FFFCBF",
", c #FFFCC2",
"< c #FFFCC7",
"1 c #FFFCC9",
"2 c #FFFCCC",
"3 c #FFFDE0",
"4 c #FFFEE3",
"5 c None",
/* pixels */
"55555555555555555555555555555555555555555555555555",
"55555555555555555555555555555555555555555555555555",
"55555555555555555555555555555555555555555555555555",
"55555555555555555555555555555555555555555555555555",
"55555555555555555555555555555555555555555555555555",
"55555555555555555555555555555555555555555555555555",
"5555555555555555555555555...5555555555555555555555",
"555555555555555555552           *55555555555555555",
"555555555555555555%               %555555555555555",
"55555555555555555                   55555555555555",
"555555555555555,                     =555555555555",
"55555555555555:                       +55555555555",
"5555555555555@                         >5555555555",
"5555555555555                           5555555555",
"555555555555                             555555555",
"55555555555@                              55555555",
"55555555555                               55555555",
"55555555555                               O5555555",
"5555555555555.                             5555555",
"5555555555555553                           <555555",
"555555555555555555;                         555555",
"555555555555555555554                       555555",
"55555555555555555555555*                    555555",
"55555555555555555555555555                  555555",
"5555555555555555555555555                   555555",
"55555555555555555555555$                    555555",
"5555555555555555555555                      555555",
"55555555555555555555*                       555555",
"5555555555555555555                         555555",
"555555555555555551                          555555",
"5555555555555555                           >555555",
"555555555555555                            5555555",
"5555555555555O                             5555555",
"555555555555                              55555555",
"55555555555                               55555555",
"555555555555                             555555555",
"5555555555551                           &555555555",
"5555555555555                           5555555555",
"55555555555555                         55555555555",
"555555555555555                       555555555555",
"5555555555555555-                   -5555555555555",
"555555555555555555                 555555555555555",
"55555555555555555555o           X55555555555555555",
"55555555555555555555555#.   ..55555555555555555555",
"55555555555555555555555555555555555555555555555555",
"55555555555555555555555555555555555555555555555555",
"55555555555555555555555555555555555555555555555555",
"55555555555555555555555555555555555555555555555555",
"55555555555555555555555555555555555555555555555555",
"55555555555555555555555555555555555555555555555555"
};
