/* XPM */
static char *_9423_90ddb9386dc176de09a5530e9d77c9acf27caf1c78ca188b40381c9959d9592a[] = {
/* columns rows colors chars-per-pixel */
"50 50 24 1 ",
"  c #FFF200",
". c #FFF20A",
"X c #FFF30D",
"o c #FFF426",
"O c #FFF533",
"+ c #FFF536",
"@ c #FFF540",
"# c #FFF647",
"$ c #FFF64F",
"% c #FFF75C",
"& c #FFF75E",
"* c #FFF766",
"= c #FFF982",
"- c #FFF984",
"; c #FFF989",
": c #FFFAA1",
"> c #FFFCBF",
", c #FFFCC2",
"< c #FFFCC7",
"1 c #FFFCC9",
"2 c #FFFCCC",
"3 c #FFFDE0",
"4 c #FFFEE3",
"5 c None",
/* pixels */
"55555555555555555555555555555555555555555555555555",
"55555555555555555555555555555555555555555555555555",
"55555555555555555555555555555555555555555555555555",
"55555555555555555555555555555555555555555555555555",
"55555555555555555555555555555555555555555555555555",
"55555555555555555555555555555555555555555555555555",
"55555555555555555555555555555555555555555555555555",
"55555555555555555555555555555555555555555555555555",
"55555555555555555555555555555555555555555555555555",
"55555555555555555555555555555555555555555555555555",
"55555555555555555555555555555555555555555555555555",
"555555555555555@  5555555555555555 555555555555555",
"55555555555555    555555555555555   15555555555555",
"555555555555@     .5555555555555O     555555555555",
"55555555555:       5555555555555       55555555555",
"5555555555,        355555555555         5555555555",
"5555555555          5555555555          -555555555",
"555555555           5555555551           555555555",
"55555555%           ;55555555             55555555",
"55555555             5555555              55555555",
"55555552             455555*              o5555555",
"5555555               55555                5555555",
"5555555               5555                 5555555",
"5555555               *55$                 #555555",
"5555555                55                  .555555",
"555555.                5                    555555",
"555555.                                     555555",
"555555.                                     555555",
"5555555                                    .555555",
"5555555                                    .555555",
"5555555                                    5555555",
"5555555                                    5555555",
"5555555*                                  X5555555",
"55555555                                  55555555",
"55555555%                                 55555555",
"555555555                                555555555",
"5555555555                              -555555555",
"5555555555=                             5555555555",
"55555555555+                           55555555555",
"555555555555>                         555555555555",
"55555555555555                      &5555555555555",
"555555555555555                    555555555555555",
"55555555555555555O               55555555555555555",
"5555555555555555555<          >5555555555555555555",
"55555555555555555555555555555555555555555555555555",
"55555555555555555555555555555555555555555555555555",
"55555555555555555555555555555555555555555555555555",
"55555555555555555555555555555555555555555555555555",
"55555555555555555555555555555555555555555555555555",
"55555555555555555555555555555555555555555555555555"
};
