/* XPM */
static char *_6568_1a2f28fcd814994c2d48c008406319adb5a5a1f4bdc4fafef91c6f653d85170e[] = {
/* columns rows colors chars-per-pixel */
"50 50 24 1 ",
"  c #FFF200",
". c #FFF20A",
"X c #FFF30D",
"o c #FFF426",
"O c #FFF533",
"+ c #FFF536",
"@ c #FFF540",
"# c #FFF647",
"$ c #FFF64F",
"% c #FFF75C",
"& c #FFF75E",
"* c #FFF766",
"= c #FFF982",
"- c #FFF984",
"; c #FFF989",
": c #FFFAA1",
"> c #FFFCBF",
", c #FFFCC2",
"< c #FFFCC7",
"1 c #FFFCC9",
"2 c #FFFCCC",
"3 c #FFFDE0",
"4 c #FFFEE3",
"5 c None",
/* pixels */
"55555555555555555555555555555555555555555555555555",
"55555555555555555555555555555555555555555555555555",
"55555555555555555555555555555555555555555555555555",
"55555555555555555555555555555555555555555555555555",
"55555555555555555555555555555555555555555555555555",
"55555555555555555555555555555555555555555555555555",
"5555555555555555555>          <5555555555555555555",
"55555555555555555               O55555555555555555",
"555555555555555                    555555555555555",
"5555555555555&                      55555555555555",
"555555555555                         >555555555555",
"55555555555                           +55555555555",
"5555555555                             =5555555555",
"555555555-                              5555555555",
"555555555                                555555555",
"55555555                                 %55555555",
"55555555                                  55555555",
"5555555X                                  *5555555",
"5555555                                    5555555",
"5555555                                    5555555",
"555555.                                    5555555",
"555555.                                    5555555",
"555555                                     .555555",
"555555                                     .555555",
"555555                    5                .555555",
"555555.                  55                5555555",
"555555#                 $55*               5555555",
"5555555                 5555               5555555",
"5555555                55555               5555555",
"5555555o              *555554             25555555",
"55555555              5555555             55555555",
"55555555             55555555;           %55555555",
"555555555           1555555555           555555555",
"555555555-          5555555555          5555555555",
"5555555555         555555555553        ,5555555555",
"55555555555       5555555555555       :55555555555",
"555555555555     O5555555555555.     @555555555555",
"55555555555551   555555555555555    55555555555555",
"555555555555555 5555555555555555  @555555555555555",
"55555555555555555555555555555555555555555555555555",
"55555555555555555555555555555555555555555555555555",
"55555555555555555555555555555555555555555555555555",
"55555555555555555555555555555555555555555555555555",
"55555555555555555555555555555555555555555555555555",
"55555555555555555555555555555555555555555555555555",
"55555555555555555555555555555555555555555555555555",
"55555555555555555555555555555555555555555555555555",
"55555555555555555555555555555555555555555555555555",
"55555555555555555555555555555555555555555555555555",
"55555555555555555555555555555555555555555555555555"
};
