/* XPM */
static char *_6805_e65dea11f90b98e2674dd0048c7e83f8977a2c051cc2fc0180233919b15888b5[] = {
/* columns rows colors chars-per-pixel */
"50 50 24 1 ",
"  c #FFF200",
". c #FFF20A",
"X c #FFF30D",
"o c #FFF426",
"O c #FFF533",
"+ c #FFF536",
"@ c #FFF540",
"# c #FFF647",
"$ c #FFF64F",
"% c #FFF75C",
"& c #FFF75E",
"* c #FFF766",
"= c #FFF982",
"- c #FFF984",
"; c #FFF989",
": c #FFFAA1",
"> c #FFFCBF",
", c #FFFCC2",
"< c #FFFCC7",
"1 c #FFFCC9",
"2 c #FFFCCC",
"3 c #FFFDE0",
"4 c #FFFEE3",
"5 c None",
/* pixels */
"55555555555555555555555555555555555555555555555555",
"55555555555555555555555555555555555555555555555555",
"55555555555555555555555555555555555555555555555555",
"55555555555555555555555555555555555555555555555555",
"55555555555555555555555555555555555555555555555555",
"55555555555555555555555555555555555555555555555555",
"5555555555555555555555...5555555555555555555555555",
"55555555555555555*           255555555555555555555",
"555555555555555%               %555555555555555555",
"55555555555555                   55555555555555555",
"555555555555=                     ,555555555555555",
"55555555555+                       :55555555555555",
"5555555555>                         @5555555555555",
"5555555555                           5555555555555",
"555555555                             555555555555",
"55555555                              @55555555555",
"55555555                               55555555555",
"5555555O                               55555555555",
"5555555                             .5555555555555",
"555555<                           3555555555555555",
"555555                         ;555555555555555555",
"555555                       455555555555555555555",
"555555                    *55555555555555555555555",
"555555                  55555555555555555555555555",
"555555                   5555555555555555555555555",
"555555                    $55555555555555555555555",
"555555                      5555555555555555555555",
"555555                       *55555555555555555555",
"555555                         5555555555555555555",
"555555                          155555555555555555",
"555555>                           5555555555555555",
"5555555                            555555555555555",
"5555555                             O5555555555555",
"55555555                              555555555555",
"55555555                               55555555555",
"555555555                             555555555555",
"555555555&                           1555555555555",
"5555555555                           5555555555555",
"55555555555                         55555555555555",
"555555555555                       555555555555555",
"5555555555555-                   -5555555555555555",
"555555555555555                 555555555555555555",
"55555555555555555X           o55555555555555555555",
"55555555555555555555..   .#55555555555555555555555",
"55555555555555555555555555555555555555555555555555",
"55555555555555555555555555555555555555555555555555",
"55555555555555555555555555555555555555555555555555",
"55555555555555555555555555555555555555555555555555",
"55555555555555555555555555555555555555555555555555",
"55555555555555555555555555555555555555555555555555"
};
